<?xml version="1.0" encoding="utf-8"?>
<!-- Generator: Adobe Illustrator 28.1.0, SVG Export Plug-In . SVG Version: 6.00 Build 0)  -->
<svg version="1.1" id="Layer_1" xmlns="http://www.w3.org/2000/svg" xmlns:xlink="http://www.w3.org/1999/xlink" x="0px" y="0px"
	 viewBox="0 0 1024 1024" style="enable-background:new 0 0 1024 1024;" xml:space="preserve">
<style type="text/css">
	.st0{opacity:0.9;}
	.st1{fill:#FFFFFF;}
	.st2{opacity:0.9;fill:#FFFFFF;}
</style>
<g class="st0">
	<path class="st1" d="M606.08,191c-16.4,49.59-24.7,100.88-24.7,152.86v328.86c0,46-17.88,89.24-50.36,121.76
		c-28.87,28.91-66.21,46.26-106.42,49.74c9.67-26.54,14.66-54.63,14.66-83.26V421.24c0-64.67,25.18-125.47,70.91-171.2
		C537.55,222.67,570.32,202.66,606.08,191 M786.58,79.12h-105.2c-188.95,0-342.12,153.17-342.12,342.11v339.73
		c0,29.68-9.27,58.03-25.44,81.62c-16.43,23.32-39.49,41.87-67.57,52.2l31.27,16.96c40.54,21.73,85.86,33.12,131.97,33.12
		c150.26,0,271.89-121.9,271.89-272.16V343.86c0-49.29,9.54-97.52,27.29-142.57C726.43,156.5,752.93,114.9,786.58,79.12
		L786.58,79.12z"/>
</g>
<path class="st2" d="M14.88,537.59l202.16,116.72c19.7,11.37,44.32-2.84,44.32-25.59V395.28c0-22.74-24.62-36.96-44.32-25.59
	L14.88,486.41C-4.82,497.79-4.82,526.21,14.88,537.59z"/>
<path class="st2" d="M1009.12,537.59L806.96,654.31c-19.7,11.37-44.32-2.84-44.32-25.59V395.28c0-22.74,24.62-36.96,44.32-25.59
	l202.16,116.72C1028.82,497.79,1028.82,526.21,1009.12,537.59z"/>
</svg>
