<?xml version="1.0" encoding="utf-8"?>
<!-- Generator: Adobe Illustrator 28.1.0, SVG Export Plug-In . SVG Version: 6.00 Build 0)  -->
<svg version="1.1" id="Layer_1" xmlns="http://www.w3.org/2000/svg" xmlns:xlink="http://www.w3.org/1999/xlink" x="0px" y="0px"
	 viewBox="0 0 166.03 70.36" style="enable-background:new 0 0 166.03 70.36;" xml:space="preserve">
<style type="text/css">
	.st0{fill:#FFFFFF;}
</style>
<g>
	<path class="st0" d="M20.39,0.01c-1.27,1.35-2.27,2.92-2.94,4.61c-0.67,1.7-1.03,3.52-1.03,5.38v12.41
		c0,5.67-4.59,10.27-10.26,10.27c-1.74,0-3.45-0.43-4.98-1.25L0,30.79c1.06-0.39,1.93-1.09,2.55-1.97c0.61-0.89,0.96-1.96,0.96-3.08
		V12.92c0-7.13,5.78-12.91,12.91-12.91H20.39z"/>
	<circle class="st0" cx="116.26" cy="6.27" r="5.34"/>
	<path class="st0" d="M36.18,6.71c0,3.7-3,6.7-6.7,6.7c-2.9,0-5.38-1.85-6.3-4.43c-2.17,1.48-3.78,3.35-3.94,3.53
		c2.7-13.28,10.24-12.5,10.24-12.5C33.18,0.01,36.18,3.01,36.18,6.71z"/>
	<path class="st0" d="M48.33,32.68h-8.75l0.7-0.49V0.53l-0.7-0.49h8.71l-0.65,0.45v31.7L48.33,32.68z"/>
	<path class="st0" d="M26.43,19.01c0,0,0.44,0.02,1.12,0H26.43z"/>
	<path class="st0" d="M27.13,19.5l-0.7-0.49c0,0,0.44,0.02,1.12,0c1.82-0.08,5.38-0.51,6.94-2.67v53.34l0.69,0.5h-8.75l0.7-0.5V19.5
		z"/>
	<path class="st0" d="M74.87,22.7c-0.16,2.99-1.35,5.73-3.35,7.73c-1.02,1.02-1.92,1.72-2.86,2.25c0.78-0.45,2.82-5.97,0.33-9.45
		c-1.27-1.8-3.35-2.78-5.32-3.52c-2.58-1.02-5.32-1.72-7.57-3.4c-2.13-1.51-3.44-3.93-3.64-6.54c-0.16-2,0.29-4.13,1.31-5.89
		c0.74-1.31,2.21-2.74,4.13-3.84c0,0-0.86,1.15-0.94,3.19c-0.08,2.66,0.98,4.79,2.78,6.3c1.1,0.9,2.41,1.43,3.72,1.88
		c2.86,0.9,5.93,1.51,8.3,3.52c0.98,0.82,1.76,1.8,2.25,2.95C74.67,19.27,74.91,20.9,74.87,22.7z M53.77,21.23v0.9l0.08,10.55
		c1.1-3.11,8.55-0.33,8.67-0.25C55.28,28.67,53.77,21.23,53.77,21.23z M73.69,0.04c-1.15,2.54-8.02,0-8.1-0.04
		c7.61,4.21,8.14,10.63,8.14,10.63V3.64L73.69,0.04z"/>
	<path class="st0" d="M79.66,32.19V0.53l-0.7-0.49h8.71l-0.65,0.45v31.7l0.7,0.49h-8.75L79.66,32.19z M98.76,32.19l-0.04-8.79
		c0-3.6-3.52-6.75-8.1-7.61h8.14V0.53l-0.7-0.49h8.71l-0.65,0.45v31.7l0.7,0.49h-8.75L98.76,32.19z"/>
	<path class="st0" d="M148.39,32.68h-8.1l0.7-0.49V0.53l-0.7-0.49h8.1V32.68z M165.52,23.93c0,8.26-8.92,8.75-11.94,8.75
		c1.31-0.45,3.07-0.98,3.35-5.19c0,0,0.16-1.8,0.16-3.56c0-1.68-0.16-3.64-0.16-3.64c-0.25-3.93-3.84-5.03-3.93-5.03
		c1.06-0.41,2.82-0.86,3.03-4.5c0,0,0.12-1.6,0.12-3.11c0-1.47-0.12-3.19-0.12-3.19c-0.16-3.52-2.09-4.09-2.86-4.42
		c2.45,0,10.59,0.94,10.59,7.61c0,5.6-5.48,7.24-8.55,7.49C158.9,15.3,165.52,17.14,165.52,23.93z"/>
	<path class="st0" d="M133,8.83v19.1c0,1.53,1.13,2.82,2.65,3.03h0l-0.09,0.06c-1.67,1.09-3.62,1.67-5.61,1.67l0,0
		c-2.41,0-4.36-1.95-4.36-4.36V5.13c0-2.27-1.42-4.31-3.55-5.09l0,0l2.17,0C129.07,0.04,133,3.98,133,8.83z"/>
	<path class="st0" d="M61,70.16h-7.95c-4.74,0-5.28-0.85-9.97-7.65c-2.59-3.66-4.51-6.3-4.51-6.3l5.82-6.16
		c10.35,13.86,12.1,16.44,12.1,16.44c1.16,1.54,2,2.44,2.69,2.96C59.87,69.97,60.42,70.11,61,70.16z"/>
	<path class="st0" d="M60.47,37.7L60.47,37.7c-2.39,0-7.47,3.03-13.56,8.95c2.31-3.54,1.37-8.95-1.19-8.95l0,0H60.47z"/>
	<path class="st0" d="M110.08,24.05c0,8.26,8.92,8.75,11.94,8.75c-1.3-0.45-3.06-0.98-3.35-5.19c0,0-0.16-1.8-0.16-3.56
		c0-1.68,0.16-3.64,0.16-3.64c0.25-3.93,3.84-5.03,3.93-5.03C118.92,15.54,110.08,17.26,110.08,24.05z"/>
	<g>
		<path class="st0" d="M73.66,70.16h-8.73l0.69-0.49V38.1l-0.69-0.49h8.69l-0.65,0.45v31.62L73.66,70.16z"/>
		<path class="st0" d="M79.66,69.69V38.11l-0.69-0.49h8.08v32.07l0.61,0.49h-8.69L79.66,69.69z M94.75,62.47
			c0-4.24-0.2-7.83-2.45-8.85c0.94-0.45,2.28-0.94,2.49-4.77c0,0,0.12-1.67,0.12-3.26c0-1.55-0.12-3.35-0.12-3.35
			c-0.16-3.75-1.8-4.32-2.49-4.65c2.16,0,10.77,0.98,10.77,8c0,6.32-6.69,7.75-9.59,7.96c1.75,0.2,7.75,1.1,9.02,6.57
			c0.73,3.14-0.57,5.1,0.69,6.85c1.06,1.47,2.94,1.39,4.32,0.65c-0.29,0.33-3.39,3.18-7.63,2.57
			C95.77,69.57,94.75,65.61,94.75,62.47z"/>
		<path class="st0" d="M161.83,70.26h-4.94l-19.38-32.11l-1.06-0.45h9.67l14.4,24.44l1.31-5.14V70.26z M145.06,70.26h-8.12
			c4.04-2.37,4.2-9.79,4.2-9.79C141.47,67.81,145.06,70.26,145.06,70.26z M161.83,46.72c-0.29-6.41-3.83-9.02-3.83-9.02h8.04
			C162.03,39.78,161.83,46.72,161.83,46.72z"/>
		<circle class="st0" cx="116.26" cy="43.83" r="5.34"/>
		<path class="st0" d="M133,46.39v19.1c0,1.53,1.13,2.82,2.65,3.03h0l-0.09,0.06c-1.67,1.09-3.62,1.67-5.61,1.67l0,0
			c-2.41,0-4.36-1.95-4.36-4.36V42.7c0-2.27-1.42-4.31-3.55-5.09h0l2.17,0C129.07,37.6,133,41.54,133,46.39z"/>
		<path class="st0" d="M110.08,61.61c0,8.26,8.92,8.75,11.94,8.75c-1.3-0.45-3.36-1.47-3.49-6.34c0,0-0.02-0.65-0.02-2.41
			c0-1.68,0.16-3.64,0.16-3.64c0.25-3.93,3.84-5.03,3.93-5.03C118.92,53.1,110.08,54.82,110.08,61.61z"/>
	</g>
	<polygon class="st0" points="27.13,19.5 27.13,19.52 26.43,19.01 	"/>
</g>
</svg>
